{
  "asset": { "version": "2.0", "generator": "dy_engine sample" },
  "scene": 0,
  "scenes": [ { "nodes": [0] } ],
  "nodes": [
    { "name": "MeshRoot", "mesh": 0, "skin": 0, "children": [1] },
    { "name": "RootJoint", "children": [2] },
    { "name": "TipJoint" }
  ],
  "meshes": [ { "name": "SkinnedQuad", "primitives": [ {
    "attributes": { "POSITION": 0, "NORMAL": 1, "JOINTS_0": 2, "WEIGHTS_0": 3 },
    "indices": 4
  } ] } ],
  "skins": [ { "name": "TwoJointSkin", "inverseBindMatrices": 5, "skeleton": 1, "joints": [1, 2] } ],
  "animations": [ {
    "name": "TipTurn",
    "samplers": [ { "input": 6, "output": 7, "interpolation": "LINEAR" } ],
    "channels": [ { "sampler": 0, "target": { "node": 2, "path": "rotation" } } ]
  } ],
  "buffers": [ {
    "uri": "data:application/octet-stream;base64,",
    "byteLength": 372
  } ],
  "bufferViews": [
    { "buffer": 0, "byteOffset": 0,   "byteLength": 48,  "target": 34962 },
    { "buffer": 0, "byteOffset": 48,  "byteLength": 48,  "target": 34962 },
    { "buffer": 0, "byteOffset": 96,  "byteLength": 32,  "target": 34962 },
    { "buffer": 0, "byteOffset": 128, "byteLength": 64,  "target": 34962 },
    { "buffer": 0, "byteOffset": 192, "byteLength": 12,  "target": 34963 },
    { "buffer": 0, "byteOffset": 204, "byteLength": 128 },
    { "buffer": 0, "byteOffset": 332, "byteLength": 8 },
    { "buffer": 0, "byteOffset": 340, "byteLength": 32 }
  ],
  "accessors": [
    { "bufferView": 0, "componentType": 5126, "count": 4, "type": "VEC3", "min": [-0.5, 0, 0], "max": [0.5, 1, 0] },
    { "bufferView": 1, "componentType": 5126, "count": 4, "type": "VEC3" },
    { "bufferView": 2, "componentType": 5123, "count": 4, "type": "VEC4" },
    { "bufferView": 3, "componentType": 5126, "count": 4, "type": "VEC4" },
    { "bufferView": 4, "componentType": 5123, "count": 6, "type": "SCALAR" },
    { "bufferView": 5, "componentType": 5126, "count": 2, "type": "MAT4" },
    { "bufferView": 6, "componentType": 5126, "count": 2, "type": "SCALAR", "min": [0], "max": [1] },
    { "bufferView": 7, "componentType": 5126, "count": 2, "type": "VEC4" }
  ]
}
